<?xml version="1.0" encoding="utf-8"?>
<!-- Generator: Adobe Illustrator 17.0.1, SVG Export Plug-In . SVG Version: 6.00 Build 0)  -->
<!DOCTYPE svg PUBLIC "-//W3C//DTD SVG 1.1//EN" "http://www.w3.org/Graphics/SVG/1.1/DTD/svg11.dtd">
<svg version="1.1" id="Layer_1" xmlns="http://www.w3.org/2000/svg" xmlns:xlink="http://www.w3.org/1999/xlink" x="0px" y="0px"
	 width="26px" height="21px" viewBox="0 0 26 21" enable-background="new 0 0 26 21" xml:space="preserve">
<g id="_x35_TeYPJ_27_">
	<g>
		<path d="M5.938,8.888c0.127-0.032,0.253-0.092,0.38-0.093c5.945-0.005,11.889-0.005,17.834-0.003c1.15,0,1.966,0.847,1.834,1.887
			c-0.11,0.861-0.841,1.472-1.796,1.476c-1.643,0.008-3.287,0.003-4.93,0.003c-4.301,0-8.603,0-12.904,0
			c-0.109,0-0.218,0.004-0.43,0.009c0.132,0.128,0.21,0.204,0.287,0.28c1.946,1.887,3.895,3.77,5.836,5.661
			c0.85,0.828,0.667,2.125-0.364,2.682c-0.674,0.365-1.488,0.246-2.066-0.315c-1.539-1.493-3.074-2.991-4.61-4.486
			c-1.466-1.427-2.933-2.854-4.398-4.282c-0.815-0.794-0.816-1.764-0.003-2.555c2.956-2.878,5.91-5.757,8.869-8.631
			c0.868-0.843,2.256-0.633,2.788,0.41c0.337,0.659,0.206,1.41-0.352,1.954c-1.918,1.868-3.84,3.733-5.76,5.599
			c-0.082,0.08-0.164,0.159-0.245,0.239C5.919,8.778,5.929,8.833,5.938,8.888z"/>
	</g>
</g>
</svg>
