<?xml version="1.0" encoding="utf-8"?>
<!-- Generator: Adobe Illustrator 17.0.1, SVG Export Plug-In . SVG Version: 6.00 Build 0)  -->
<!DOCTYPE svg PUBLIC "-//W3C//DTD SVG 1.1//EN" "http://www.w3.org/Graphics/SVG/1.1/DTD/svg11.dtd">
<svg version="1.1" id="Layer_1" xmlns="http://www.w3.org/2000/svg" xmlns:xlink="http://www.w3.org/1999/xlink" x="0px" y="0px"
	 width="15px" height="15px" viewBox="0 0 15 15" enable-background="new 0 0 15 15" xml:space="preserve">
<g id="_x35_TeYPJ_18_">
	<g>
		<path d="M10.492,12.237c-0.088-0.051-0.191-0.086-0.26-0.156C6.971,8.837,3.712,5.59,0.455,2.342
			c-0.63-0.628-0.601-1.549,0.057-2.06c0.545-0.423,1.289-0.366,1.815,0.153c0.905,0.893,1.803,1.794,2.704,2.691
			c2.358,2.349,4.715,4.699,7.073,7.048c0.06,0.06,0.122,0.117,0.241,0.23c0-0.144,0-0.229,0-0.314
			c-0.004-2.121-0.013-4.243-0.012-6.364c0-0.929,0.831-1.556,1.71-1.306c0.575,0.164,0.954,0.675,0.955,1.305
			c0.003,1.678,0.001,3.357,0.001,5.035c0,1.602,0,3.203,0,4.805c0,0.891-0.546,1.436-1.437,1.435c-3.24,0-6.481,0.002-9.721-0.002
			c-0.95-0.001-1.593-0.877-1.297-1.753c0.187-0.554,0.681-0.904,1.293-0.904c2.103,0,4.207,0.003,6.31,0.005
			c0.09,0,0.179,0,0.269,0C10.441,12.309,10.467,12.273,10.492,12.237z"/>
	</g>
</g>
</svg>
