<?xml version="1.0" encoding="utf-8"?>
<!-- Generator: Adobe Illustrator 17.0.1, SVG Export Plug-In . SVG Version: 6.00 Build 0)  -->
<!DOCTYPE svg PUBLIC "-//W3C//DTD SVG 1.1//EN" "http://www.w3.org/Graphics/SVG/1.1/DTD/svg11.dtd">
<svg version="1.1" id="Layer_1" xmlns="http://www.w3.org/2000/svg" xmlns:xlink="http://www.w3.org/1999/xlink" x="0px" y="0px"
	 width="17px" height="14px" viewBox="0 0 17 14" enable-background="new 0 0 17 14" xml:space="preserve">
<g id="_x35_TeYPJ_15_">
	<g>
		<path d="M13.117,8.074c-0.083,0.021-0.166,0.062-0.248,0.062C8.982,8.139,5.095,8.14,1.208,8.138
			c-0.752,0-1.286-0.565-1.199-1.258c0.072-0.574,0.55-0.981,1.174-0.984c1.074-0.005,2.149-0.002,3.223-0.002
			c2.812,0,5.625,0,8.437,0c0.071,0,0.143-0.003,0.281-0.006c-0.086-0.086-0.137-0.136-0.188-0.187
			c-1.272-1.258-2.547-2.513-3.816-3.774C8.565,1.375,8.685,0.511,9.359,0.139c0.441-0.243,0.973-0.164,1.351,0.21
			c1.006,0.996,2.01,1.994,3.014,2.991c0.959,0.952,1.918,1.903,2.876,2.855c0.533,0.53,0.533,1.176,0.002,1.704
			c-1.933,1.918-3.864,3.838-5.799,5.754c-0.568,0.562-1.475,0.422-1.823-0.274c-0.22-0.44-0.135-0.94,0.23-1.302
			c1.254-1.245,2.511-2.489,3.766-3.733c0.054-0.053,0.107-0.106,0.16-0.159C13.13,8.148,13.124,8.111,13.117,8.074z"/>
	</g>
</g>
</svg>
