<?xml version="1.0" encoding="utf-8"?>
<!-- Generator: Adobe Illustrator 17.1.0, SVG Export Plug-In . SVG Version: 6.00 Build 0)  -->
<!DOCTYPE svg PUBLIC "-//W3C//DTD SVG 1.1//EN" "http://www.w3.org/Graphics/SVG/1.1/DTD/svg11.dtd">
<svg version="1.1" id="Layer_1" xmlns="http://www.w3.org/2000/svg" xmlns:xlink="http://www.w3.org/1999/xlink" x="0px" y="0px"
	 viewBox="0 0 24 18" enable-background="new 0 0 24 18" xml:space="preserve">
<path fill="#FFFFFF" d="M23.3,1.6C22.6,0.6,21.5,0,20.2,0H3.8C2.5,0,1.4,0.6,0.7,1.6L12,8.9L23.3,1.6z M23.9,3.1l-11.5,7.4
	c0,0,0,0,0,0c0,0-0.1,0-0.1,0.1c0,0,0,0-0.1,0c-0.1,0-0.1,0-0.2,0c0,0,0,0,0,0h0c0,0,0,0,0,0c-0.1,0-0.1,0-0.2,0c0,0,0,0-0.1,0
	c-0.1,0-0.1,0-0.1-0.1c0,0,0,0,0,0L0.1,3.1C0,3.3,0,3.5,0,3.7v10.6C0,16.3,1.7,18,3.8,18h16.5c2.1,0,3.8-1.7,3.8-3.7V3.7
	C24,3.5,24,3.3,23.9,3.1z M7.1,12l-3.6,3.5c-0.1,0.1-0.2,0.2-0.4,0.2c-0.1,0-0.3-0.1-0.4-0.2c-0.2-0.2-0.2-0.6,0-0.8l3.6-3.5
	c0.2-0.2,0.6-0.2,0.8,0C7.3,11.4,7.3,11.7,7.1,12z M21.3,15.5c-0.1,0.1-0.2,0.2-0.4,0.2c-0.1,0-0.3-0.1-0.4-0.2L16.9,12
	c-0.2-0.2-0.2-0.6,0-0.8s0.6-0.2,0.8,0l3.6,3.5C21.5,14.9,21.5,15.3,21.3,15.5z"/>
</svg>
