<?xml version="1.0" encoding="utf-8"?>
<!-- Generator: Adobe Illustrator 17.0.1, SVG Export Plug-In . SVG Version: 6.00 Build 0)  -->
<!DOCTYPE svg PUBLIC "-//W3C//DTD SVG 1.1//EN" "http://www.w3.org/Graphics/SVG/1.1/DTD/svg11.dtd">
<svg version="1.1" id="Layer_1" xmlns="http://www.w3.org/2000/svg" xmlns:xlink="http://www.w3.org/1999/xlink" x="0px" y="0px"
	 width="17px" height="14px" viewBox="0 0 17 14" enable-background="new 0 0 17 14" xml:space="preserve">
<g id="_x35_TeYPJ_15_">
	<g>
		<path d="M3.883,5.926c0.083-0.021,0.166-0.062,0.248-0.062c3.887-0.003,7.774-0.004,11.661-0.002c0.752,0,1.286,0.565,1.199,1.258
			c-0.072,0.574-0.55,0.981-1.174,0.984c-1.074,0.005-2.149,0.002-3.223,0.002c-2.812,0-5.625,0-8.437,0
			c-0.071,0-0.143,0.003-0.281,0.006c0.086,0.086,0.137,0.136,0.188,0.187c1.272,1.258,2.547,2.513,3.816,3.774
			c0.555,0.552,0.435,1.416-0.239,1.788c-0.441,0.243-0.973,0.164-1.351-0.21c-1.006-0.996-2.01-1.994-3.014-2.991
			C2.317,9.708,1.358,8.757,0.4,7.805c-0.533-0.53-0.533-1.176-0.002-1.704c1.933-1.918,3.864-3.838,5.799-5.754
			C6.765-0.215,7.672-0.075,8.02,0.621c0.22,0.44,0.135,0.94-0.23,1.302C6.536,3.168,5.279,4.412,4.024,5.656
			C3.97,5.709,3.917,5.762,3.864,5.815C3.87,5.852,3.876,5.889,3.883,5.926z"/>
	</g>
</g>
</svg>
