<?xml version="1.0" encoding="utf-8"?>
<!-- Generator: Adobe Illustrator 17.0.1, SVG Export Plug-In . SVG Version: 6.00 Build 0)  -->
<!DOCTYPE svg PUBLIC "-//W3C//DTD SVG 1.1//EN" "http://www.w3.org/Graphics/SVG/1.1/DTD/svg11.dtd">
<svg version="1.1" id="Layer_1" xmlns="http://www.w3.org/2000/svg" xmlns:xlink="http://www.w3.org/1999/xlink" x="0px" y="0px"
	 width="12px" height="14px" viewBox="0 0 12 14" enable-background="new 0 0 12 14" xml:space="preserve">
<g id="_x35_TeYPJ_26_">
	<g>
		<path fill="#FFFFFF" d="M5.079,10.802c-0.018-0.068-0.053-0.136-0.053-0.205C5.024,7.397,5.023,4.196,5.025,0.995
			c0-0.619,0.484-1.059,1.078-0.987C6.595,0.067,6.944,0.46,6.946,0.974c0.004,0.885,0.001,1.77,0.001,2.655
			c0,2.316,0,4.632,0,6.948c0,0.059,0.003,0.118,0.005,0.232c0.073-0.071,0.117-0.113,0.16-0.155
			c1.078-1.048,2.154-2.097,3.235-3.143c0.473-0.458,1.214-0.359,1.533,0.196c0.208,0.363,0.141,0.801-0.18,1.112
			c-0.853,0.829-1.709,1.655-2.564,2.482c-0.816,0.79-1.631,1.579-2.447,2.368c-0.454,0.439-1.008,0.439-1.46,0.002
			c-1.644-1.592-3.29-3.182-4.932-4.776c-0.482-0.467-0.362-1.215,0.235-1.501c0.377-0.181,0.806-0.111,1.116,0.19
			c1.067,1.033,2.133,2.068,3.2,3.101c0.045,0.044,0.091,0.088,0.136,0.132C5.016,10.813,5.048,10.808,5.079,10.802z"/>
	</g>
</g>
</svg>
