<?xml version="1.0" encoding="utf-8"?>
<!-- Generator: Adobe Illustrator 17.0.1, SVG Export Plug-In . SVG Version: 6.00 Build 0)  -->
<!DOCTYPE svg PUBLIC "-//W3C//DTD SVG 1.1//EN" "http://www.w3.org/Graphics/SVG/1.1/DTD/svg11.dtd">
<svg version="1.1" id="Layer_1" xmlns="http://www.w3.org/2000/svg" xmlns:xlink="http://www.w3.org/1999/xlink" x="0px" y="0px"
	 width="10px" height="10px" viewBox="0 0 10 10" enable-background="new 0 0 10 10" xml:space="preserve">
<g id="_x35_TeYPJ_19_">
	<g>
		<path fill="#FFFFFF" d="M6.651,7.784C6.595,7.752,6.53,7.729,6.486,7.685C4.419,5.621,2.353,3.556,0.288,1.49
			c-0.399-0.4-0.381-0.986,0.036-1.311C0.67-0.09,1.142-0.054,1.475,0.276c0.574,0.568,1.143,1.141,1.714,1.712
			c1.495,1.495,2.989,2.989,4.484,4.484C7.711,6.51,7.75,6.546,7.826,6.618c0-0.092,0-0.146,0-0.2
			C7.823,5.069,7.818,3.719,7.818,2.37c0-0.591,0.527-0.99,1.084-0.831c0.364,0.104,0.605,0.429,0.605,0.83
			c0.002,1.068,0.001,2.135,0.001,3.203c0,1.019,0,2.038,0,3.057c0,0.567-0.346,0.913-0.911,0.913c-2.054,0-4.108,0.001-6.162-0.001
			C1.832,9.54,1.425,8.983,1.612,8.425c0.118-0.352,0.432-0.575,0.82-0.575c1.333,0,2.666,0.002,4,0.003c0.057,0,0.114,0,0.17,0
			C6.619,7.83,6.635,7.807,6.651,7.784z"/>
	</g>
</g>
</svg>
