<?xml version="1.0" encoding="utf-8"?>
<!-- Generator: Adobe Illustrator 17.0.1, SVG Export Plug-In . SVG Version: 6.00 Build 0)  -->
<!DOCTYPE svg PUBLIC "-//W3C//DTD SVG 1.1//EN" "http://www.w3.org/Graphics/SVG/1.1/DTD/svg11.dtd">
<svg version="1.1" id="Layer_1" xmlns="http://www.w3.org/2000/svg" xmlns:xlink="http://www.w3.org/1999/xlink" x="0px" y="0px"
	 width="71px" height="24px" viewBox="0 0 71 24" enable-background="new 0 0 71 24" xml:space="preserve">
<rect fill="#FFD200" width="75" height="24"/>
<g>
	<path d="M11.8,10.816c0.085-0.022,0.169-0.064,0.254-0.064c3.978-0.003,7.956-0.003,11.934-0.002c0.769,0,1.316,0.582,1.227,1.297
		c-0.073,0.592-0.563,1.012-1.202,1.015c-1.1,0.005-2.199,0.002-3.299,0.002c-2.878,0-5.756,0-8.635,0
		c-0.073,0-0.146,0.003-0.288,0.006c0.088,0.088,0.14,0.14,0.192,0.192c1.302,1.297,2.607,2.591,3.905,3.891
		c0.569,0.569,0.446,1.461-0.243,1.844c-0.451,0.251-0.995,0.169-1.382-0.216c-1.03-1.026-2.057-2.056-3.085-3.084
		c-0.981-0.981-1.963-1.962-2.943-2.943c-0.545-0.546-0.546-1.213-0.002-1.756c1.978-1.978,3.955-3.957,5.935-5.933
		c0.581-0.579,1.51-0.435,1.866,0.282C16.26,5.8,16.172,6.316,15.799,6.69c-1.284,1.284-2.569,2.566-3.854,3.849
		c-0.055,0.055-0.109,0.109-0.164,0.164C11.787,10.74,11.793,10.778,11.8,10.816z"/>
</g>
<g>
	<path d="M32.26,7.111h5.726v1.428h-4.074v2.394h3.724v1.414h-3.724v3.85H32.26V7.111z"/>
	<path d="M39.778,7.111h1.652v9.086h-1.652V7.111z"/>
	<path d="M50.643,9.897c0,0.644-0.182,1.195-0.546,1.652c-0.364,0.458-0.887,0.775-1.568,0.952l2.437,3.696h-2.156l-2.002-3.542
		h-1.26v3.542h-1.652V7.111h3.36c1.073,0,1.908,0.257,2.506,0.77C50.349,8.376,50.643,9.048,50.643,9.897z M47.101,11.549
		c0.606,0,1.063-0.138,1.372-0.413c0.308-0.275,0.462-0.639,0.462-1.092s-0.14-0.817-0.42-1.092c-0.28-0.275-0.7-0.413-1.26-0.413
		h-1.708v3.01H47.101z"/>
	<path d="M57.545,9.617c-0.149-0.793-0.71-1.19-1.681-1.19c-0.476,0-0.847,0.096-1.112,0.287c-0.267,0.191-0.399,0.422-0.399,0.693
		c0,0.271,0.086,0.483,0.259,0.637c0.173,0.154,0.441,0.296,0.806,0.427l1.974,0.77c0.672,0.261,1.189,0.59,1.554,0.987
		c0.364,0.397,0.546,0.894,0.546,1.492c0,0.821-0.308,1.473-0.924,1.953s-1.493,0.721-2.632,0.721c-1.008,0-1.825-0.247-2.45-0.742
		c-0.7-0.541-1.068-1.307-1.105-2.296h1.638c0,0.747,0.387,1.218,1.162,1.414c0.233,0.065,0.541,0.098,0.924,0.098
		s0.737-0.096,1.064-0.287c0.326-0.19,0.489-0.447,0.489-0.77s-0.089-0.569-0.266-0.742c-0.178-0.173-0.467-0.333-0.868-0.483
		l-1.806-0.714c-0.7-0.271-1.237-0.588-1.61-0.952c-0.373-0.364-0.56-0.868-0.56-1.512c0-0.756,0.294-1.353,0.882-1.792
		c0.597-0.457,1.407-0.686,2.429-0.686c1.022,0,1.811,0.236,2.366,0.707c0.555,0.472,0.875,1.132,0.959,1.981H57.545z"/>
	<path d="M60.344,7.111h7.28v1.428H64.81v7.658h-1.651V8.539h-2.814V7.111z"/>
</g>
</svg>
