<?xml version="1.0" encoding="utf-8"?>
<!-- Generator: Adobe Illustrator 17.0.1, SVG Export Plug-In . SVG Version: 6.00 Build 0)  -->
<!DOCTYPE svg PUBLIC "-//W3C//DTD SVG 1.1//EN" "http://www.w3.org/Graphics/SVG/1.1/DTD/svg11.dtd">
<svg version="1.1" id="Layer_1" xmlns="http://www.w3.org/2000/svg" xmlns:xlink="http://www.w3.org/1999/xlink" x="0px" y="0px"
	 width="114px" height="108px" viewBox="0 0 114 108" enable-background="new 0 0 114 108" xml:space="preserve">
<polygon fill="#0061A8" points="0.078,107.854 5.93,107.854 5.93,98.032 17.488,98.032 18.855,94.502 5.93,94.502 5.93,88.981 
	19.795,88.981 21.161,85.45 0.078,85.45 0.078,107.854 "/>
<polygon fill="#0061A8" points="72.03,107.854 77.882,107.854 77.882,88.981 87.915,88.981 89.006,85.45 62.392,85.45 
	61.301,88.981 72.03,88.981 72.03,107.854 "/>
<polygon fill="#0061A8" points="42.086,85.403 48.792,102.086 48.868,102.086 53.824,85.403 59.428,85.403 52.375,107.854 
	46.74,107.854 41.438,95.21 41.361,95.21 36.136,107.854 30.386,107.854 23.448,85.403 29.054,85.403 34.048,102.086 
	34.124,102.086 40.866,85.403 42.086,85.403 "/>
<path fill="#0061A8" d="M114,107.854H80.447c17.509-8.004,28.117-19.989,26.104-31.404c-2.834-16.074-30.128-24.698-60.962-19.26
	C25.097,60.803,8.199,69.717,0,80.008V0h114v107.971V107.854z"/>
<polygon fill="#0061A8" points="0.078,107.854 5.93,107.854 5.93,98.032 17.488,98.032 18.855,94.502 5.93,94.502 5.93,88.981 
	19.795,88.981 21.161,85.45 0.078,85.45 0.078,107.854 "/>
<polygon fill="#0061A8" points="72.03,107.854 77.882,107.854 77.882,88.981 87.915,88.981 89.006,85.45 62.392,85.45 
	61.301,88.981 72.03,88.981 72.03,107.854 "/>
<polygon fill="#0061A8" points="42.086,85.403 48.792,102.086 48.868,102.086 53.824,85.403 59.428,85.403 52.375,107.854 
	46.74,107.854 41.438,95.21 41.361,95.21 36.136,107.854 30.386,107.854 23.448,85.403 29.054,85.403 34.048,102.086 
	34.124,102.086 40.866,85.403 42.086,85.403 "/>
<path fill="#0061A8" d="M114,107.854H80.447c17.509-8.004,28.117-19.989,26.104-31.404c-2.834-16.074-30.128-24.698-60.962-19.26
	C25.097,60.803,8.199,69.717,0,80.008V0h114v107.971V107.854z"/>
<polygon fill="#0061A8" points="0.078,107.854 5.93,107.854 5.93,98.032 17.488,98.032 18.855,94.502 5.93,94.502 5.93,88.981 
	19.795,88.981 21.161,85.45 0.078,85.45 0.078,107.854 "/>
<polygon fill="#0061A8" points="72.03,107.854 77.882,107.854 77.882,88.981 87.915,88.981 89.006,85.45 62.392,85.45 
	61.301,88.981 72.03,88.981 72.03,107.854 "/>
<polygon fill="#0061A8" points="42.086,85.403 48.792,102.086 48.868,102.086 53.824,85.403 59.428,85.403 52.375,107.854 
	46.74,107.854 41.438,95.21 41.361,95.21 36.136,107.854 30.386,107.854 23.448,85.403 29.054,85.403 34.048,102.086 
	34.124,102.086 40.866,85.403 42.086,85.403 "/>
<path fill="#0061A8" d="M114,107.854H80.447c17.509-8.004,28.117-19.989,26.104-31.404c-2.834-16.074-30.128-24.698-60.962-19.26
	C25.097,60.803,8.199,69.717,0,80.008V0h114v107.971V107.854z"/>
<polygon fill="#0061A8" points="0.078,107.854 5.93,107.854 5.93,98.032 17.488,98.032 18.855,94.502 5.93,94.502 5.93,88.981 
	19.795,88.981 21.161,85.45 0.078,85.45 0.078,107.854 "/>
<polygon fill="#0061A8" points="72.03,107.854 77.882,107.854 77.882,88.981 87.915,88.981 89.006,85.45 62.392,85.45 
	61.301,88.981 72.03,88.981 72.03,107.854 "/>
<polygon fill="#0061A8" points="42.086,85.403 48.792,102.086 48.868,102.086 53.824,85.403 59.428,85.403 52.375,107.854 
	46.74,107.854 41.438,95.21 41.361,95.21 36.136,107.854 30.386,107.854 23.448,85.403 29.054,85.403 34.048,102.086 
	34.124,102.086 40.866,85.403 42.086,85.403 "/>
<path fill="#0061A8" d="M114,107.854H80.447c17.509-8.004,28.117-19.989,26.104-31.404c-2.834-16.074-30.128-24.698-60.962-19.26
	C25.097,60.803,8.199,69.717,0,80.008V0h114v107.971V107.854z"/>
</svg>
