<?xml version="1.0" encoding="utf-8"?>
<!-- Generator: Adobe Illustrator 17.0.1, SVG Export Plug-In . SVG Version: 6.00 Build 0)  -->
<!DOCTYPE svg PUBLIC "-//W3C//DTD SVG 1.1//EN" "http://www.w3.org/Graphics/SVG/1.1/DTD/svg11.dtd">
<svg version="1.1" id="Layer_1" xmlns="http://www.w3.org/2000/svg" xmlns:xlink="http://www.w3.org/1999/xlink" x="0px" y="0px"
	 width="71px" height="24px" viewBox="0 0 71 24" enable-background="new 0 0 71 24" xml:space="preserve">
<rect fill="#FFD200" width="71" height="24"/>
<g>
	<path d="M56.427,12.966c-0.085,0.022-0.169,0.064-0.254,0.064c-3.978,0.003-7.956,0.003-11.934,0.002
		c-0.769,0-1.316-0.582-1.227-1.297c0.073-0.592,0.563-1.012,1.202-1.015c1.1-0.005,2.199-0.002,3.299-0.002
		c2.878,0,5.756,0,8.635,0c0.073,0,0.146-0.003,0.288-0.006c-0.088-0.088-0.14-0.14-0.192-0.192
		c-1.302-1.297-2.607-2.591-3.905-3.891c-0.569-0.569-0.446-1.461,0.243-1.844c0.451-0.251,0.995-0.169,1.382,0.216
		c1.03,1.026,2.057,2.056,3.085,3.084c0.981,0.981,1.963,1.962,2.943,2.943c0.545,0.546,0.546,1.213,0.002,1.756
		c-1.978,1.978-3.955,3.957-5.935,5.933c-0.581,0.579-1.51,0.435-1.866-0.282c-0.225-0.453-0.138-0.969,0.236-1.343
		c1.284-1.284,2.569-2.566,3.854-3.849c0.055-0.055,0.109-0.109,0.164-0.164C56.44,13.042,56.434,13.004,56.427,12.966z"/>
</g>
<g>
	<path d="M8.832,14.756h3.738v1.441H7.18V7.111h1.652V14.756z"/>
	<path d="M16.056,7.111h2.072l2.982,9.086h-1.75l-0.63-1.96h-3.374l-0.644,1.96h-1.75L16.056,7.111z M15.776,12.991h2.548
		l-1.26-3.906L15.776,12.991z"/>
	<path d="M27.354,9.617c-0.149-0.793-0.709-1.19-1.68-1.19c-0.476,0-0.847,0.096-1.113,0.287c-0.266,0.191-0.399,0.422-0.399,0.693
		c0,0.271,0.086,0.483,0.259,0.637c0.172,0.154,0.441,0.296,0.805,0.427l1.974,0.77c0.672,0.261,1.19,0.59,1.554,0.987
		c0.364,0.397,0.546,0.894,0.546,1.492c0,0.821-0.308,1.473-0.924,1.953c-0.616,0.48-1.494,0.721-2.632,0.721
		c-1.008,0-1.825-0.247-2.45-0.742c-0.7-0.541-1.069-1.307-1.106-2.296h1.638c0,0.747,0.387,1.218,1.162,1.414
		c0.233,0.065,0.541,0.098,0.924,0.098s0.737-0.096,1.064-0.287c0.326-0.19,0.49-0.447,0.49-0.77s-0.089-0.569-0.266-0.742
		s-0.467-0.333-0.868-0.483l-1.806-0.714c-0.7-0.271-1.237-0.588-1.61-0.952c-0.374-0.364-0.56-0.868-0.56-1.512
		c0-0.756,0.294-1.353,0.882-1.792c0.597-0.457,1.407-0.686,2.429-0.686s1.811,0.236,2.366,0.707
		c0.555,0.472,0.875,1.132,0.959,1.981H27.354z"/>
	<path d="M30.153,7.111h7.28v1.428h-2.814v7.658h-1.652V8.539h-2.814V7.111z"/>
</g>
</svg>
