<?xml version="1.0" encoding="utf-8"?>
<!-- Generator: Adobe Illustrator 17.0.1, SVG Export Plug-In . SVG Version: 6.00 Build 0)  -->
<!DOCTYPE svg PUBLIC "-//W3C//DTD SVG 1.1//EN" "http://www.w3.org/Graphics/SVG/1.1/DTD/svg11.dtd">
<svg version="1.1" id="Layer_1" xmlns="http://www.w3.org/2000/svg" xmlns:xlink="http://www.w3.org/1999/xlink" x="0px" y="0px"
	 width="44px" height="36px" viewBox="0 0 44 36" enable-background="new 0 0 44 36" xml:space="preserve">
<g id="_x35_TeYPJ_4_">
	<g>
		<path fill="#FFFFFF" d="M9.838,15.125c0.21-0.055,0.42-0.157,0.63-0.158c9.848-0.008,19.696-0.009,29.545-0.005
			c1.904,0.001,3.257,1.442,3.038,3.211c-0.182,1.465-1.393,2.504-2.975,2.512c-2.722,0.013-5.445,0.004-8.167,0.004
			c-7.126,0-14.252,0-21.377,0c-0.181,0-0.362,0.008-0.713,0.015c0.218,0.218,0.347,0.348,0.476,0.476
			c3.224,3.21,6.453,6.415,9.669,9.633c1.408,1.409,1.105,3.616-0.603,4.565c-1.116,0.62-2.464,0.418-3.422-0.536
			c-2.55-2.541-5.092-5.089-7.638-7.634c-2.429-2.429-4.859-4.857-7.287-7.287c-1.35-1.352-1.352-3.002-0.006-4.348
			c4.897-4.897,9.791-9.796,14.693-14.688c1.438-1.435,3.737-1.077,4.62,0.698c0.558,1.122,0.341,2.4-0.584,3.324
			c-3.178,3.179-6.361,6.352-9.542,9.528c-0.136,0.135-0.271,0.271-0.406,0.406C9.805,14.938,9.822,15.031,9.838,15.125z"/>
	</g>
</g>
</svg>
