<?xml version="1.0" encoding="utf-8"?>
<!-- Generator: Adobe Illustrator 17.0.1, SVG Export Plug-In . SVG Version: 6.00 Build 0)  -->
<!DOCTYPE svg PUBLIC "-//W3C//DTD SVG 1.1//EN" "http://www.w3.org/Graphics/SVG/1.1/DTD/svg11.dtd">
<svg version="1.1" id="Layer_1" xmlns="http://www.w3.org/2000/svg" xmlns:xlink="http://www.w3.org/1999/xlink" x="0px" y="0px"
	 width="15px" height="13px" viewBox="0 0 15 13" enable-background="new 0 0 15 13" xml:space="preserve">
<g>
	<path d="M11.397,7.068c-0.072,0.019-0.144,0.054-0.216,0.054C7.804,7.124,4.427,7.125,1.05,7.123c-0.653,0-1.117-0.495-1.042-1.101
		C0.07,5.52,0.486,5.163,1.028,5.161c0.934-0.004,1.867-0.001,2.801-0.001c2.444,0,4.887,0,7.331,0c0.062,0,0.124-0.003,0.244-0.005
		c-0.075-0.075-0.119-0.119-0.163-0.163c-1.106-1.101-2.213-2.2-3.316-3.303c-0.483-0.483-0.379-1.24,0.207-1.565
		c0.383-0.213,0.845-0.143,1.173,0.184c0.874,0.871,1.746,1.745,2.619,2.618c0.833,0.833,1.666,1.666,2.499,2.499
		c0.463,0.463,0.464,1.03,0.002,1.491c-1.679,1.679-3.358,3.359-5.039,5.037c-0.493,0.492-1.282,0.369-1.584-0.24
		c-0.191-0.385-0.117-0.823,0.2-1.14c1.09-1.09,2.181-2.178,3.272-3.267c0.046-0.046,0.093-0.093,0.139-0.139
		C11.408,7.132,11.403,7.1,11.397,7.068z"/>
</g>
</svg>
